<svg width="61" height="61" viewBox="0 0 61 61" fill="none" xmlns="http://www.w3.org/2000/svg">
<g id="javascript-original 2" clip-path="url(#clip0_4408_74)">
<path id="Vector" d="M0.671021 0.671005H60.329V60.3295H0.671021V0.671005Z" fill="#F0DB4F"/>
<path id="Vector_2" d="M55.4466 46.1007C55.0096 43.3791 53.2349 41.093 47.9779 38.9614C46.1517 38.1221 44.1158 37.5212 43.5092 36.1373C43.2938 35.3319 43.2652 34.8782 43.4015 34.3907C43.7927 32.8085 45.6813 32.3152 47.1782 32.7689C48.1423 33.092 49.0549 33.835 49.6054 35.0202C52.1798 33.3532 52.1745 33.3641 53.9721 32.2185C53.314 31.1982 52.9627 30.7273 52.5319 30.2908C50.9836 28.5613 48.8738 27.6706 45.4998 27.7388L43.7422 27.9661C42.058 28.3917 40.453 29.2757 39.5118 30.4609C36.6877 33.6653 37.493 39.2735 40.9295 41.5815C44.315 44.1225 49.2884 44.7006 49.9237 47.0767C50.5418 49.9857 47.7858 50.9274 45.0466 50.5928C43.0278 50.173 41.9051 49.1469 40.6913 47.2812C38.4571 48.5741 38.4571 48.5741 36.1601 49.8951C36.7048 51.0861 37.2772 51.6251 38.1903 52.6568C42.5117 57.0402 53.3259 56.8248 55.2655 50.1901C55.3441 49.9623 55.8664 48.443 55.4466 46.1007ZM33.103 28.09H27.5229L27.5 42.5165C27.5 45.5846 27.6587 48.3973 27.1597 49.2594C26.3434 50.955 24.2279 50.7448 23.2638 50.416C22.2826 49.9337 21.7836 49.248 21.2056 48.2786C21.0469 48.0003 20.9277 47.7849 20.8877 47.7682L16.3508 50.5466C17.1052 52.0949 18.2166 53.4389 19.6401 54.3119C21.7665 55.5882 24.6244 55.9794 27.6134 55.2932C29.5588 54.7265 31.2372 53.5528 32.116 51.7661C33.3865 49.4238 33.1139 46.5887 33.1025 43.453C33.1311 38.3371 33.103 33.2221 33.103 28.09Z" fill="#323330"/>
</g>
<defs>
<clipPath id="clip0_4408_74">
<rect width="61" height="61" fill="white"/>
</clipPath>
</defs>
</svg>
