<svg width="63" height="66" viewBox="0 0 63 66" fill="none" xmlns="http://www.w3.org/2000/svg">
<path d="M1.44719 35.0153L8.69736 29.3608C10.3775 28.0508 12.8471 28.2951 14.2128 29.9062C15.5791 31.5179 15.3243 33.8869 13.6441 35.1969L10.1356 37.9334L35.6096 58.5229C37.2898 59.833 37.5446 62.2019 36.1782 63.813C35.4036 64.7278 34.2734 65.2018 33.1343 65.2018C32.2653 65.2018 31.3899 64.926 30.6635 64.359L1.44719 40.8514C0.53202 40.1373 0 39.0655 0 37.9334C0 36.8012 0.53202 35.7301 1.44719 35.0153V35.0153Z" fill="white"/>
<path d="M33.6419 0.465268C35.7231 0.481274 37.3976 2.11269 37.3809 4.10978L37.0568 61.6147C37.0401 63.6118 35.3387 65.2173 33.2575 65.2013C32.7299 65.1976 32.2293 65.0899 31.7749 64.899C30.4368 64.3357 29.5056 63.0484 29.5178 61.5568L29.8426 4.05251C29.8592 2.05543 31.5599 0.449261 33.6419 0.465268V0.465268Z" fill="white"/>
<path d="M50.1876 40.0216L52.8651 37.9334L43.3283 30.4949C41.6481 29.1848 41.394 26.8159 42.7597 25.2048C44.1254 23.5925 46.5949 23.3487 48.2751 24.6587L61.5528 35.0154C62.4686 35.7301 63 36.8013 63 37.9334C63 39.0656 62.4686 40.1374 61.5528 40.8515L55.1344 45.8578C54.4073 46.4248 53.5325 46.7005 52.6635 46.7005C51.5237 46.7005 50.3936 46.2265 49.619 45.3123C48.2533 43.7006 48.508 41.3323 50.1876 40.0216Z" fill="#70FF00"/>
</svg>
